<?xml version="1.0" encoding="utf-8"?>
<!-- Generator: Adobe Illustrator 16.0.4, SVG Export Plug-In . SVG Version: 6.00 Build 0)  -->
<!DOCTYPE svg PUBLIC "-//W3C//DTD SVG 1.1//EN" "http://www.w3.org/Graphics/SVG/1.1/DTD/svg11.dtd">
<svg version="1.1" id="Layer_1" xmlns="http://www.w3.org/2000/svg" xmlns:xlink="http://www.w3.org/1999/xlink" x="0px" y="0px"
	 width="288px" height="288px" viewBox="0 0 288 288" enable-background="new 0 0 288 288" xml:space="preserve">
<path fill="none" stroke="#000000" stroke-width="20" stroke-linecap="round" stroke-linejoin="round" stroke-miterlimit="10" d="
	M38.558,269.751C26.935,268.08,18,258.086,18,246v-42.691l62.5-58.5l35.5,42.5v-0.154l91.5-86.423l62.5,62.577V42
	c0-13.255-10.745-24-24-24H42c-13.255,0-24,10.745-24,24v161"/>
<path fill="none" stroke="#000000" stroke-width="20" stroke-linecap="round" stroke-linejoin="round" stroke-miterlimit="10" d="
	M207.5,100.809l62.5,62.5V246c0,13.255-10.745,24-24,24l-207.442-0.249L209.691,270"/>
<circle fill="none" stroke="#000000" stroke-width="20" stroke-miterlimit="10" cx="95.5" cy="83" r="22"/>
<circle fill="none" stroke="#000000" stroke-width="20" stroke-miterlimit="10" cx="452.5" cy="144" r="132"/>
<g>
	<path d="M439.708,171.137c-1.872-1.605-1.482-5.397-1.482-8.21c0-9.933,4.124-19.116,14.807-27.174l8.994-6.746
		c5.623-4.124,8.06-9.185,8.06-14.807c0-8.621-6.184-16.866-18.74-16.866c-13.308,0-19.115,10.682-19.115,21.177
		c0,2.25,0.22,4.86-0.848,6.282c-3.548,4.726-18.596,3.456-22.019-1.223c-1.611-2.202-0.936-5.622-0.936-8.434
		c0-20.239,15.178-39.73,42.917-39.73c29.05,0,44.228,18.366,44.228,37.295c0,14.806-7.494,25.3-18.554,33.173l-7.685,5.433
		c-6.559,4.688-9.335,10.107-10.117,18.179c-0.052,0.535-0.721,1.735-0.899,1.954C455.112,175.354,443.55,174.431,439.708,171.137z
		 M449.472,182.793c8.245,0,14.991,6.747,14.991,14.993s-6.746,14.805-14.991,14.805c-8.246,0-14.805-6.559-14.805-14.805
		S441.226,182.793,449.472,182.793z"/>
</g>
</svg>
