<?xml version="1.0" encoding="utf-8"?>
<!-- Generator: Adobe Illustrator 16.0.4, SVG Export Plug-In . SVG Version: 6.00 Build 0)  -->
<!DOCTYPE svg PUBLIC "-//W3C//DTD SVG 1.1//EN" "http://www.w3.org/Graphics/SVG/1.1/DTD/svg11.dtd">
<svg version="1.1" id="Layer_1" xmlns="http://www.w3.org/2000/svg" xmlns:xlink="http://www.w3.org/1999/xlink" x="0px" y="0px"
	 width="288px" height="288px" viewBox="0 0 288 288" enable-background="new 0 0 288 288" xml:space="preserve">
<path fill="none" stroke="#000000" stroke-width="20" stroke-linecap="round" stroke-linejoin="round" stroke-miterlimit="10" d="
	M53.621,251.786C43.659,250.355,36,241.788,36,231.428v-36.592l53.572-50.142L120,181.121v-0.131l78.429-74.077L252,160.55V56.571
	C252,45.21,242.79,36,231.428,36H56.571C45.21,36,36,45.21,36,56.571v138"/>
<path fill="none" stroke="#000000" stroke-width="20" stroke-linecap="round" stroke-linejoin="round" stroke-miterlimit="10" d="
	M198.43,106.979L252,160.55v70.878C252,242.79,242.79,252,231.428,252l-177.807-0.214L200.308,252"/>
<circle fill="none" stroke="#000000" stroke-width="20" stroke-miterlimit="10" cx="452.5" cy="144" r="132"/>
<path d="M439.708,171.137c-1.872-1.604-1.482-5.396-1.482-8.21c0-9.933,4.124-19.116,14.808-27.174l8.994-6.746
	c5.623-4.124,8.06-9.185,8.06-14.807c0-8.621-6.184-16.866-18.74-16.866c-13.308,0-19.114,10.682-19.114,21.177
	c0,2.25,0.22,4.86-0.849,6.282c-3.548,4.726-18.596,3.456-22.019-1.223c-1.611-2.202-0.937-5.622-0.937-8.434
	c0-20.239,15.179-39.729,42.917-39.729c29.051,0,44.229,18.366,44.229,37.295c0,14.806-7.494,25.3-18.555,33.173l-7.685,5.433
	c-6.559,4.688-9.335,10.107-10.117,18.18c-0.052,0.535-0.721,1.734-0.898,1.953C455.112,175.354,443.55,174.432,439.708,171.137z"/>
<path d="M102.384,76.865c8.245,0,14.991,6.747,14.991,14.993s-6.746,14.805-14.991,14.805c-8.246,0-14.805-6.559-14.805-14.805
	S94.138,76.865,102.384,76.865z"/>
</svg>
