<?xml version="1.0" encoding="utf-8"?>
<!-- Generator: Adobe Illustrator 22.1.0, SVG Export Plug-In . SVG Version: 6.00 Build 0)  -->
<svg version="1.1" id="Layer_1" xmlns="http://www.w3.org/2000/svg" xmlns:xlink="http://www.w3.org/1999/xlink" x="0px" y="0px"
	 viewBox="0 0 288 288" style="enable-background:new 0 0 288 288;" xml:space="preserve">
<style type="text/css">
	.st0{fill:none;stroke:#000000;stroke-width:20;stroke-linecap:round;stroke-linejoin:round;stroke-miterlimit:10;}
	.st1{fill:#F1F2F3;}
</style>
<path class="st0" d="M36,194.6"/>
<path class="st1" d="M249.1,159.8v-34.3l0,0L249.1,159.8L249.1,159.8z M126.3,203.2c-1.4,1.7-3.2,3-5.3,3.8
	c-4.8,1.7-10.2,0.3-13.4-3.6L78.9,169l-36,33.7v50.9h206.1v-93.8l-37.3-37.3L126.3,203.2z M249.1,47.5v78L220.6,97
	c-4.6-4.6-12.1-4.8-16.9-0.2l-85.8,81.1l-28.6-34.2c-2.1-2.6-5.2-4.1-8.6-4.3c-3.3-0.2-6.6,1-9,3.3l-28.7,26.9v-122H249.1z
	 M113.7,99.4c0-10-8.2-18.2-18.2-18.2c-10,0-18,8.2-18,18.2c0,10,8,18,18,18C105.5,117.4,113.7,109.4,113.7,99.4z"/>
</svg>
