<?xml version="1.0" encoding="utf-8"?>
<!-- Generator: Adobe Illustrator 16.0.4, SVG Export Plug-In . SVG Version: 6.00 Build 0)  -->
<!DOCTYPE svg PUBLIC "-//W3C//DTD SVG 1.1//EN" "http://www.w3.org/Graphics/SVG/1.1/DTD/svg11.dtd">
<svg version="1.1" id="Layer_1" xmlns="http://www.w3.org/2000/svg" xmlns:xlink="http://www.w3.org/1999/xlink" x="0px" y="0px"
	 width="288px" height="288px" viewBox="0 0 288 288" enable-background="new 0 0 288 288" xml:space="preserve">
<path fill="none" stroke="#000000" stroke-width="20" stroke-linecap="round" stroke-linejoin="round" stroke-miterlimit="10" d="
	M-269.442,269.751C-281.065,268.08-290,258.086-290,246v-42.691l62.5-58.5l35.5,42.5v-0.154l91.5-86.422l62.5,62.577V42
	c0-13.255-10.745-24-24-24h-204c-13.255,0-24,10.745-24,24v161"/>
<path fill="none" stroke="#000000" stroke-width="20" stroke-linecap="round" stroke-linejoin="round" stroke-miterlimit="10" d="
	M-100.5,100.809l62.5,62.5V246c0,13.255-10.745,24-24,24l-207.442-0.249L-98.309,270"/>
<circle fill="none" stroke="#000000" stroke-width="20" stroke-miterlimit="10" cx="-212.5" cy="83" r="22"/>
<path fill="none" stroke="#000000" stroke-width="20" stroke-miterlimit="10" d="M144.5,36c59.636,0,108,48.358,108,108
	c0,59.636-48.364,108-108,108c-59.643,0-108-48.364-108-108C36.5,84.358,84.857,36,144.5,36z"/>
<g>
	<path d="M134.028,166.215c-1.521-1.323-1.201-4.412-1.201-6.713c0-8.148,3.374-15.659,12.112-22.249l7.354-5.527
		c4.592-3.374,6.606-7.5,6.606-12.111c0-7.051-5.06-13.796-15.341-13.796c-10.894,0-15.646,8.737-15.646,17.333
		c0,1.828,0.188,3.97-0.684,5.134c-2.915,3.859-14.408,3.637-17.198-0.176c-1.33-1.803-1.584-5.426-1.584-7.723
		c0-16.559,12.412-32.511,35.112-32.511c23.777,0,36.189,15.038,36.189,30.521c0,12.11-6.135,20.697-15.18,27.149l-6.278,4.448
		c-5.388,3.815-7.647,8.242-8.289,14.852c-0.052,0.441-0.58,1.406-0.753,1.62C146.643,169.635,137.171,168.9,134.028,166.215z
		 M142.022,175.747c6.757,0,12.284,5.496,12.284,12.242s-5.527,12.133-12.284,12.133c-6.75,0-12.121-5.387-12.121-12.133
		S135.272,175.747,142.022,175.747z"/>
</g>
</svg>
