<?xml version="1.0" encoding="utf-8"?>
<!-- Generator: Adobe Illustrator 22.1.0, SVG Export Plug-In . SVG Version: 6.00 Build 0)  -->
<svg version="1.1" id="Layer_1" xmlns="http://www.w3.org/2000/svg" xmlns:xlink="http://www.w3.org/1999/xlink" x="0px" y="0px"
	 viewBox="0 0 288 288" style="enable-background:new 0 0 288 288;" xml:space="preserve">
<style type="text/css">
	.st0{fill:none;stroke:#000000;stroke-width:20;stroke-linecap:round;stroke-linejoin:round;stroke-miterlimit:10;}
	.st1{fill:#F1F2F3;}
</style>
<path class="st0" d="M153.2,186.1"/>
<path class="st1" d="M278,142.7L145.3,10c-0.7-0.7-1.9-0.7-2.6,0L10,142.7c-0.7,0.7-0.7,1.9,0,2.6L142.7,278c0.7,0.7,1.9,0.7,2.6,0
	L278,145.3C278.7,144.6,278.7,143.4,278,142.7z M141.3,215.8c-8.6,0-15.5-6.9-15.5-15.5c0-8.6,6.9-15.7,15.5-15.7
	c8.6,0,15.7,7,15.7,15.7C157.1,208.9,150,215.8,141.3,215.8z M170.2,146l-8,5.7c-6.9,4.9-9.8,10.5-10.6,19c-0.1,0.6-0.7,1.8-1,2.1
	c-3.3,4.1-15.4,3.1-19.5-0.3c-1.9-1.7-1.5-5.6-1.5-8.6c0-10.4,4.3-20,15.5-28.5l9.4-7.1c5.9-4.3,8.4-9.6,8.4-15.5
	c0-9-6.5-17.6-19.6-17.6c-13.9,0-20,11.2-20,22.2c0,2.3,0.2,5.1-0.9,6.6c-3.7,4.9-18.4,4.7-22-0.2c-1.7-2.3-2-6.9-2-9.9
	c0-21.2,15.9-41.6,44.9-41.6c30.4,0,46.3,19.2,46.3,39C189.6,126.8,181.7,137.8,170.2,146z"/>
</svg>
