<?xml version="1.0" encoding="utf-8"?>
<!-- Generator: Adobe Illustrator 16.0.4, SVG Export Plug-In . SVG Version: 6.00 Build 0)  -->
<!DOCTYPE svg PUBLIC "-//W3C//DTD SVG 1.1//EN" "http://www.w3.org/Graphics/SVG/1.1/DTD/svg11.dtd">
<svg version="1.1" id="Layer_1" xmlns="http://www.w3.org/2000/svg" xmlns:xlink="http://www.w3.org/1999/xlink" x="0px" y="0px"
	 width="288px" height="288px" viewBox="0 0 288 288" enable-background="new 0 0 288 288" xml:space="preserve">
<g>
	<path fill="#FFFFFF" d="M134.028,166.215c-1.521-1.322-1.201-4.412-1.201-6.713c0-8.148,3.374-15.659,12.112-22.249l7.354-5.527
		c4.592-3.374,6.605-7.5,6.605-12.111c0-7.051-5.061-13.796-15.34-13.796c-10.894,0-15.646,8.737-15.646,17.333
		c0,1.828,0.188,3.97-0.684,5.134c-2.915,3.859-14.408,3.637-17.198-0.176c-1.33-1.803-1.584-5.426-1.584-7.723
		c0-16.559,12.412-32.511,35.112-32.511c23.777,0,36.189,15.038,36.189,30.521c0,12.11-6.136,20.697-15.181,27.149l-6.277,4.448
		c-5.389,3.814-7.646,8.242-8.289,14.852c-0.052,0.441-0.58,1.406-0.753,1.62C146.643,169.635,137.171,168.9,134.028,166.215z
		 M142.022,175.747c6.757,0,12.285,5.496,12.285,12.242c0,6.745-5.527,12.133-12.285,12.133c-6.75,0-12.121-5.388-12.121-12.133
		C129.901,181.243,135.272,175.747,142.022,175.747z"/>
</g>
<path fill="none" stroke="#000000" stroke-width="20" stroke-linecap="round" stroke-linejoin="round" stroke-miterlimit="10" d="
	M153.186,186.127"/>
<rect x="59.146" y="59.148" transform="matrix(-0.7071 0.7071 -0.7071 -0.7071 347.6434 144.0014)" fill="none" stroke="#FFFFFF" stroke-width="20" stroke-linecap="round" stroke-linejoin="round" stroke-miterlimit="10" width="169.704" height="169.704"/>
</svg>
